<svg xmlns="http://www.w3.org/2000/svg" xml:space="preserve" width="2000" height="709" data-id="lg_KnIxxQ0lv9gPrifNvV" data-version="1"><g data-padding="20"><path fill="#434343" d="M1001.68 639.732A286.03 286.03 0 0 1 716.45 354.5a286.03 286.03 0 0 1 285.23-285.232c156.957 0 285.232 128.275 285.232 286.029s-128.275 284.435-285.232 284.435m0-553.733c-148.194 0-269.298 121.105-269.298 269.298s121.104 269.297 269.298 269.297 269.297-121.104 269.297-269.297c0-148.99-121.104-269.298-269.297-269.298"/><path fill="#434343" d="M1001.68 502.693c-1.593 0-2.39 0-3.983-.797l-121.104-66.129c-2.39-1.593-3.984-3.983-3.984-7.17l-2.39-139.43c0-3.186 1.593-5.577 3.984-7.17l118.713-73.3a7.24 7.24 0 0 1 7.968 0l123.494 68.52c2.39 1.593 3.984 3.983 3.984 7.17l2.39 139.43c0 3.186-1.593 5.576-3.984 7.17l-121.104 70.91c-1.593.796-2.39.796-3.983.796m-113.137-78.877 113.137 62.146 113.136-66.13-2.39-131.461L996.9 224.63l-110.746 68.52Z"/><path fill="#434343" d="M764.253 505.083c-2.39 0-5.577-1.593-7.17-3.983-2.391-3.984-.798-8.764 3.186-11.155l116.324-68.519c3.983-2.39 8.764-.797 11.154 3.187s.797 8.764-3.187 11.154l-116.324 68.52c-.796.796-2.39.796-3.983.796m446.173-270.094c-3.187 0-5.577-1.593-7.17-3.983-2.391-3.984-.798-8.764 3.186-11.155l26.292-14.34c3.984-2.391 8.765-.798 11.155 3.186s.797 8.764-3.187 11.154l-26.292 14.342c-1.594.796-3.187.796-3.984.796m-90.032 56.569c-2.39 0-5.577-1.594-7.17-3.984-2.39-3.187-.797-7.967 2.39-10.358l49.398-31.072c3.983-2.39 8.764-.797 11.154 2.39 2.39 3.984.797 8.764-2.39 11.154l-49.398 31.073c-1.593.797-3.187.797-3.984.797M1006.461 639.81a7.967 7.967 0 0 1-7.967-7.968l-4.78-137.038c0-4.78 3.186-7.968 7.967-7.968 3.983-.797 7.967 3.187 7.967 7.968l4.78 137.038c0 4.78-3.187 7.968-7.967 7.968M996.9 223.038c-4.78 0-7.967-3.187-7.967-7.967v-82.86c0-4.781 3.187-7.968 7.967-7.968s7.968 3.187 7.968 7.967v82.86c0 4.781-3.984 7.968-7.968 7.968m241.412 272.485c-1.594 0-2.39 0-3.984-.797l-78.08-43.024c-3.984-2.39-5.578-7.17-3.187-11.154s7.17-5.578 11.154-3.187l78.08 43.024c3.984 2.39 5.577 7.17 3.187 11.154-1.593 2.39-3.983 3.984-7.17 3.984M878.186 296.338c-1.593 0-2.39 0-3.983-.797l-118.714-63.739c-3.984-2.39-5.578-7.17-3.187-11.154s7.17-5.577 11.154-3.187l118.714 63.74c3.984 2.39 5.577 7.17 3.187 11.153-1.594 2.39-3.984 3.984-7.17 3.984"/><path fill="#e6292c" d="M1114.7 191.557c2.617 9.576 12.033 15.537 21.858 13.805l117.178-20.662-219.991 294.096-144.192-58.221-.636-.446-.997-.382a18.306 18.306 0 0 0-22.566 5.374L713.688 619.155c-5.918 7.549-4.313 19.813 3.236 25.731s19.829 4.404 25.731-3.236l143.118-182.954 147.06 59.202c7.449 3.24 16.95.729 21.824-5.893l230.438-308.112 21.202 120.242a19.22 19.22 0 0 0 21.254 15.12c9.465-1.67 16.576-11.938 14.801-21.477l-28.608-162.247c-1.653-9.374-11.832-16.501-21.206-14.849l-162.247 28.609a20.136 20.136 0 0 0-15.591 22.266"/><path fill="#434343" d="M706.344 648.545V52.196h26.622v10.65h-15.973v42.596h26.622v10.649h-26.622v42.596h15.973v10.65h-15.973v42.596h26.622v10.649h-26.622v42.596h15.973v10.649h-15.973v42.596h26.622v10.65h-26.622v42.596h15.973v10.649h-15.973v42.596h26.622v10.65h-26.622v42.596h15.973v10.649h-15.973v42.596h26.622v10.649h-26.622v42.596h15.973v10.65h-15.973v42.596h42.596v-10.65h10.649v10.65h42.596v-21.298h10.65v21.298h42.596v-10.65h10.649v10.65h42.596v-21.298h10.65v21.298h42.595v-10.65h10.65v10.65h42.596v-21.298h10.649v21.298h42.596v-10.65h10.65v10.65h42.596v-21.298h10.649v21.298h42.596v-10.65h10.65v10.65h42.595v-21.298h10.65v21.298h42.596v-10.65h10.649v21.299Z"/><path fill="transparent" stroke="transparent" d="M647.5 0h705v709h-705z"/></g></svg>